<svg width="1024" height="1024" viewBox="0 0 1024 1024" fill="none" xmlns="http://www.w3.org/2000/svg">
  <defs>
    <linearGradient id="bg" x1="164" y1="112" x2="860" y2="912" gradientUnits="userSpaceOnUse">
      <stop stop-color="#0F766E"/>
      <stop offset="0.55" stop-color="#0EA5A4"/>
      <stop offset="1" stop-color="#38BDF8"/>
    </linearGradient>
    <linearGradient id="glow" x1="268" y1="228" x2="762" y2="824" gradientUnits="userSpaceOnUse">
      <stop stop-color="white" stop-opacity="0.46"/>
      <stop offset="1" stop-color="white" stop-opacity="0"/>
    </linearGradient>
    <filter id="shadow" x="154" y="144" width="716" height="736" filterUnits="userSpaceOnUse" color-interpolation-filters="sRGB">
      <feFlood flood-opacity="0" result="BackgroundImageFix"/>
      <feColorMatrix in="SourceAlpha" type="matrix" values="0 0 0 0 0 0 0 0 0 0 0 0 0 0 0 0 0 0 127 0" result="hardAlpha"/>
      <feOffset dy="24"/>
      <feGaussianBlur stdDeviation="22"/>
      <feComposite in2="hardAlpha" operator="out"/>
      <feColorMatrix type="matrix" values="0 0 0 0 0.027451 0 0 0 0 0.215686 0 0 0 0 0.258824 0 0 0 0.18 0"/>
      <feBlend mode="normal" in2="BackgroundImageFix" result="effect1_dropShadow_1_1"/>
      <feBlend mode="normal" in="SourceGraphic" in2="effect1_dropShadow_1_1" result="shape"/>
    </filter>
  </defs>

  <rect x="96" y="96" width="832" height="832" rx="216" fill="url(#bg)"/>
  <rect x="132" y="132" width="760" height="760" rx="184" stroke="white" stroke-opacity="0.18" stroke-width="10"/>
  <path d="M244 258C339.912 182.951 470.224 154.406 588.497 181.475C694.046 205.63 782.996 275.665 836 372V196H188V420C198.723 357.73 214.701 310.635 244 258Z" fill="url(#glow)" fill-opacity="0.75"/>

  <g filter="url(#shadow)">
    <path d="M248 474.84L512 266L776 474.84" stroke="white" stroke-width="62" stroke-linecap="round" stroke-linejoin="round"/>
    <path d="M332 442H692C719.614 442 742 464.386 742 492V706C742 733.614 719.614 756 692 756H332C304.386 756 282 733.614 282 706V492C282 464.386 304.386 442 332 442Z" fill="white"/>
    <path d="M396 516C396 503.85 405.85 494 418 494H606C618.15 494 628 503.85 628 516V674C628 686.15 618.15 696 606 696H418C405.85 696 396 686.15 396 674V516Z" fill="#DFF7F5"/>
    <rect x="438" y="570" width="44" height="84" rx="22" fill="#0F766E"/>
    <rect x="490" y="530" width="44" height="124" rx="22" fill="#0EA5A4"/>
    <rect x="542" y="486" width="44" height="168" rx="22" fill="#38BDF8"/>
    <path d="M348 728H676" stroke="#0F766E" stroke-width="26" stroke-linecap="round"/>
    <circle cx="672" cy="352" r="74" fill="#F8FAFC" fill-opacity="0.22"/>
    <path d="M672 320V384" stroke="white" stroke-width="22" stroke-linecap="round"/>
    <path d="M640 352H704" stroke="white" stroke-width="22" stroke-linecap="round"/>
  </g>
</svg>
